<?xml version="1.0" encoding="UTF-8"?>
<svg id="Layer_1" data-name="Layer 1" xmlns="http://www.w3.org/2000/svg" version="1.1" viewBox="0 0 20 20">
  <defs>
    <style>
      .cls-1 {
        fill: #fff;
        stroke-width: 0px;
      }
    </style>
  </defs>
  <circle class="cls-1" cx="13.2" cy="6.8" r=".7"/>
  <path class="cls-1" d="M10,6.9c-1.7,0-3.1,1.4-3.1,3.1s1.4,3.1,3.1,3.1,3.1-1.4,3.1-3.1-1.4-3.1-3.1-3.1ZM10,12c-1.1,0-2-.9-2-2s.9-2,2-2,2,.9,2,2-.9,2-2,2Z"/>
  <path class="cls-1" d="M15.7,6.1c-.1-.4-.4-.7-.7-1.1s-.7-.5-1.1-.7c-.4-.2-.8-.2-1.4-.3-.6,0-.8,0-2.3,0h-.3c-1.5,0-1.7,0-2.3,0-.6,0-1.1.1-1.4.3-.4.2-.7.4-1.1.7s-.5.7-.7,1.1c-.2.4-.2.8-.3,1.4,0,.6,0,.8,0,2.5s0,1.8,0,2.5c0,.6.1,1.1.3,1.4.2.4.4.7.7,1.1s.7.5,1.1.7c.4.1.8.2,1.4.3.6,0,.8,0,2.5,0s1.8,0,2.5,0c.6,0,1.1-.1,1.4-.3.4-.1.7-.4,1.1-.7s.5-.7.7-1.1c.1-.4.2-.8.3-1.4,0-.6,0-.8,0-2.3v-.3c0-1.5,0-1.7,0-2.3,0-.6-.1-1.1-.3-1.5ZM14.9,12.4c0,.6-.1.9-.2,1.1-.1.3-.2.5-.4.7s-.4.3-.7.4c-.2,0-.5.2-1.1.2-.6,0-.8,0-2.4,0s-1.8,0-2.4,0c-.6,0-.9-.1-1.1-.2-.3-.1-.5-.2-.7-.4s-.3-.4-.4-.7c0-.2-.2-.5-.2-1.1,0-.6,0-.8,0-2.4s0-1.8,0-2.4c0-.6.1-.9.2-1.1.1-.3.2-.5.4-.7s.4-.3.7-.4c.2,0,.5-.2,1.1-.2.6,0,.8,0,2.4,0s1.8,0,2.4,0c.6,0,.9.1,1.1.2.3.1.5.2.7.4s.3.4.4.7c0,.2.2.5.2,1.1,0,.6,0,.8,0,2.4s0,1.8,0,2.4Z"/>
</svg>