<?xml version="1.0" encoding="UTF-8"?>
<svg id="Layer_1" data-name="Layer 1" xmlns="http://www.w3.org/2000/svg" version="1.1" viewBox="0 0 20 20">
  <defs>
    <style>
      .cls-1 {
        fill: #fff;
        stroke-width: 0px;
      }
    </style>
  </defs>
  <path class="cls-1" d="M15.6,5.9c-.2-.2-.7-.3-1.3-.3-.9,0-2.6,0-4.3,0s-3.4,0-4.3,0c-.6,0-1,.1-1.3.3-.2.1-.4.4-.5,1.3-.2,1.3-.2,4.3,0,5.6.1.9.3,1.2.5,1.3.2.2.7.3,1.3.3.9,0,2.6.1,4.3.1s3.4,0,4.3-.1c.6,0,1-.1,1.3-.3.1-.1.4-.4.5-1.3.1-1.3.1-4.3,0-5.6-.1-.9-.3-1.2-.5-1.3ZM8.5,12v-3.9l3.7,1.9-3.7,1.9h0Z"/>
</svg>